REM MD5 ef2f8594b889ca2219af9d03a714f663
FILE "DemoDemo PlayStation Vol. 9 (Japan).bin" BINARY
  TRACK 01 MODE2/2352
    INDEX 01 00:00:00
  TRACK 02 AUDIO
    INDEX 00 55:59:47
    INDEX 01 56:01:47
  TRACK 03 AUDIO
    INDEX 00 58:19:52
    INDEX 01 58:21:52
  TRACK 04 AUDIO
    INDEX 00 61:20:31
    INDEX 01 61:22:31
  TRACK 05 AUDIO
    INDEX 00 61:40:15
    INDEX 01 61:42:15
  TRACK 06 AUDIO
    INDEX 00 63:38:62
    INDEX 01 63:40:62
REM LEADOUT 64:04:46
